<svg width="178" height="29" viewBox="0 0 178 29" fill="none" xmlns="http://www.w3.org/2000/svg">
<path d="M115.959 0.140099C127.997 0.140099 127.997 0.140099 129.239 0.535553C129.346 0.568389 129.449 0.594535 129.559 0.615081C129.706 0.643626 129.832 0.69708 129.968 0.758534C130.047 0.792571 130.125 0.818099 130.208 0.842354C130.807 1.02803 131.367 1.35952 131.904 1.66737C131.935 1.68512 131.967 1.7029 131.999 1.72119C132.069 1.76174 132.138 1.80512 132.206 1.84919C132.206 1.87319 132.206 1.89719 132.206 1.92192C132.233 1.93053 132.259 1.93915 132.287 1.94803C132.413 2.0025 132.502 2.07239 132.607 2.15828C132.711 2.24257 132.811 2.3221 132.924 2.39464C132.924 2.41864 132.924 2.44264 132.924 2.46737C132.947 2.47635 132.971 2.48537 132.995 2.49464C133.075 2.5401 133.075 2.5401 133.113 2.61508C133.125 2.63832 133.138 2.66159 133.15 2.68555C133.172 2.6893 133.195 2.69304 133.217 2.6969C133.341 2.73363 133.396 2.80861 133.481 2.90144C133.511 2.93403 133.541 2.96661 133.572 3.00017C133.642 3.08555 133.642 3.08555 133.642 3.15828C133.664 3.16679 133.685 3.17533 133.708 3.1841C133.812 3.24184 133.866 3.30759 133.939 3.39919C133.965 3.43203 133.992 3.4649 134.019 3.49875C134.044 3.53039 134.069 3.56203 134.095 3.59464C134.124 3.63028 134.124 3.63028 134.154 3.66664C134.331 3.88468 134.476 4.12163 134.624 4.35828C134.644 4.38992 134.665 4.42155 134.686 4.45414C135.177 5.22326 135.538 6.15177 135.67 7.0473C135.683 7.12828 135.698 7.20857 135.714 7.28908C135.873 8.1825 135.855 9.14137 135.682 10.031C135.671 10.0946 135.659 10.1582 135.648 10.2218C135.577 10.5954 135.478 10.9473 135.342 11.3037C135.322 11.3586 135.322 11.3586 135.301 11.4146C135.111 11.9348 134.856 12.4491 134.526 12.9013C134.442 13.0197 134.369 13.1442 134.295 13.2685C134.246 13.3401 134.246 13.3401 134.171 13.3765C134.154 13.4032 134.137 13.43 134.12 13.4576C134.05 13.5692 133.97 13.6561 133.878 13.7514C133.763 13.8705 133.65 13.9898 133.54 14.1128C133.297 14.3799 133.033 14.621 132.735 14.831C132.71 14.831 132.685 14.831 132.659 14.831C132.647 14.867 132.634 14.903 132.621 14.9401C132.548 14.991 132.472 15.0391 132.395 15.0856C132.273 15.1675 132.151 15.2497 132.029 15.3321C131.902 15.4137 131.772 15.4868 131.639 15.5583C131.592 15.5842 131.545 15.6103 131.498 15.6364C130.881 15.9765 130.248 16.2272 129.573 16.4378C129.533 16.4504 129.493 16.4629 129.452 16.4758C129.213 16.5492 128.977 16.6081 128.73 16.6492C128.755 16.6502 128.78 16.6513 128.805 16.6524C128.984 16.6598 128.984 16.6598 129.07 16.6856C129.129 16.7657 129.129 16.7657 129.183 16.8674C129.227 16.9349 129.271 17.0024 129.315 17.0696C129.349 17.1203 129.349 17.1203 129.383 17.172C129.423 17.2309 129.464 17.2889 129.508 17.3452C129.57 17.4244 129.618 17.5092 129.668 17.5955C129.716 17.6739 129.768 17.7489 129.821 17.8242C129.901 17.9388 129.977 18.0549 130.05 18.1742C130.147 18.3312 130.252 18.4796 130.362 18.6283C130.479 18.7893 130.586 18.9556 130.694 19.1219C130.711 19.1469 130.727 19.172 130.744 19.1977C130.774 19.244 130.804 19.2904 130.834 19.3367C130.894 19.429 130.955 19.5209 131.016 19.6128C131.092 19.7277 131.168 19.8426 131.242 19.9583C131.319 20.0767 131.396 20.1948 131.474 20.3128C131.495 20.3456 131.517 20.3784 131.539 20.4122C131.598 20.5014 131.598 20.5014 131.656 20.5725C131.72 20.6562 131.771 20.7445 131.824 20.8348C131.896 20.9538 131.977 21.0671 132.057 21.181C132.357 21.6082 132.357 21.6082 132.357 21.7037C132.382 21.7037 132.407 21.7037 132.433 21.7037C132.448 21.7353 132.464 21.7669 132.48 21.7994C132.544 21.918 132.614 22.0253 132.692 22.1356C132.794 22.2802 132.893 22.4253 132.988 22.5739C133.071 22.7014 133.155 22.8277 133.239 22.9541C133.299 23.0457 133.357 23.1382 133.415 23.231C133.535 23.4165 133.654 23.6013 133.79 23.7765C133.868 23.8856 133.868 23.8856 133.868 23.9946C133.893 23.9946 133.918 23.9946 133.944 23.9946C133.992 24.0625 134.037 24.1327 134.081 24.2037C134.108 24.2473 134.135 24.2908 134.162 24.3342C134.176 24.3565 134.19 24.3787 134.204 24.4016C134.268 24.5018 134.336 24.5993 134.404 24.6969C134.502 24.8364 134.597 24.9767 134.689 25.1198C134.748 25.2119 134.809 25.3032 134.87 25.3946C134.946 25.5095 135.021 25.6245 135.096 25.7401C135.173 25.8585 135.25 25.9766 135.328 26.0946C135.349 26.1274 135.371 26.1602 135.393 26.1941C135.432 26.2517 135.473 26.3084 135.516 26.3635C135.569 26.431 135.569 26.431 135.63 26.5378C135.707 26.6705 135.796 26.7934 135.887 26.9174C136.003 27.0756 136.107 27.2352 136.201 27.4062C136.276 27.5313 136.364 27.6462 136.451 27.7633C136.554 27.9058 136.645 28.0473 136.702 28.2127C136.104 28.2171 135.505 28.2204 134.907 28.2222C134.629 28.2233 134.351 28.2243 134.073 28.2265C133.831 28.2283 133.589 28.2294 133.347 28.2298C133.218 28.2302 133.09 28.2305 132.962 28.232C132.819 28.2334 132.676 28.2334 132.533 28.2334C132.49 28.2342 132.448 28.2349 132.404 28.2353C132.117 28.2334 132.117 28.2334 131.994 28.128C131.976 28.096 131.959 28.064 131.941 28.0309C131.918 27.992 131.894 27.9531 131.87 27.9127C131.858 27.8913 131.846 27.8694 131.833 27.8469C131.786 27.7687 131.734 27.6945 131.681 27.6196C131.578 27.4724 131.483 27.3213 131.389 27.1678C131.339 27.0856 131.339 27.0856 131.28 27.0135C131.217 26.9316 131.164 26.8464 131.11 26.7583C131.068 26.6937 131.025 26.6293 130.982 26.5651C130.905 26.448 130.827 26.3308 130.751 26.2128C130.674 26.0944 130.597 25.9762 130.52 25.8583C130.498 25.8254 130.477 25.7926 130.455 25.7588C130.415 25.7014 130.375 25.6449 130.332 25.59C130.27 25.5104 130.221 25.4253 130.171 25.3386C130.125 25.2637 130.077 25.1917 130.026 25.1196C129.924 24.9731 129.822 24.8264 129.722 24.6787C129.707 24.6576 129.692 24.6364 129.677 24.6146C129.589 24.4847 129.53 24.3618 129.485 24.2128C129.46 24.2128 129.436 24.2128 129.41 24.2128C129.355 24.1395 129.307 24.0671 129.259 23.9901C129.245 23.9694 129.232 23.9486 129.218 23.9273C129.135 23.7961 129.077 23.6692 129.032 23.5219C129.007 23.5219 128.982 23.5219 128.956 23.5219C128.903 23.4462 128.853 23.3713 128.805 23.2924C128.778 23.2493 128.752 23.2063 128.725 23.1632C128.69 23.1068 128.69 23.1068 128.654 23.0492C128.629 23.0132 128.604 22.9772 128.579 22.9401C128.579 22.9041 128.579 22.8681 128.579 22.831C128.554 22.831 128.529 22.831 128.503 22.831C128.453 22.7608 128.406 22.6884 128.361 22.6151C128.334 22.5714 128.307 22.5278 128.28 22.4842C128.266 22.4628 128.253 22.4412 128.239 22.419C128.188 22.3381 128.133 22.2594 128.078 22.181C128.014 22.0902 127.954 21.9994 127.898 21.9037C127.807 21.7462 127.701 21.5984 127.596 21.4492C127.556 21.3916 127.516 21.3341 127.476 21.2765C127.458 21.2511 127.441 21.2258 127.422 21.1997C127.365 21.1145 127.311 21.0275 127.256 20.9401C127.212 20.871 127.167 20.802 127.122 20.7333C127.099 20.6986 127.076 20.664 127.053 20.6283C126.995 20.5383 126.995 20.5383 126.916 20.4674C126.891 20.4068 126.865 20.3462 126.841 20.2856C126.807 20.2316 126.771 20.1785 126.734 20.1265C126.714 20.0981 126.694 20.0698 126.674 20.0406C126.621 19.9687 126.568 19.8974 126.515 19.8265C126.44 19.727 126.377 19.624 126.315 19.5166C126.253 19.4142 126.183 19.3171 126.114 19.2189C126.032 19.0995 125.951 18.979 125.87 18.8583C125.855 18.8368 125.841 18.8153 125.826 18.7932C125.766 18.7026 125.706 18.6118 125.649 18.5195C125.564 18.3837 125.473 18.2518 125.383 18.1192C125.329 18.031 125.329 18.031 125.329 17.9583C125.304 17.9583 125.279 17.9583 125.254 17.9583C125.24 17.9305 125.227 17.9028 125.214 17.8742C125.133 17.717 125.03 17.5731 124.93 17.427C124.876 17.3401 124.876 17.3401 124.876 17.2674C124.851 17.2674 124.826 17.2674 124.8 17.2674C124.738 17.1594 124.675 17.0514 124.611 16.9401C122.292 16.9221 122.292 16.9221 119.926 16.9037C119.926 20.6357 119.926 24.3677 119.926 28.2127C118.617 28.2127 117.308 28.2127 115.959 28.2127C115.959 18.9488 115.959 9.68483 115.959 0.140099ZM119.926 1.7401C119.926 6.2281 119.926 10.7161 119.926 15.3401C121.347 15.3405 121.347 15.3405 122.767 15.3347C122.815 15.3344 122.863 15.3341 122.912 15.3337C123.114 15.3324 123.316 15.3311 123.517 15.3296C123.799 15.3276 124.08 15.3258 124.362 15.3243C124.589 15.3231 124.816 15.3215 125.044 15.3198C125.138 15.3191 125.233 15.3186 125.328 15.3181C125.862 15.3156 126.386 15.2976 126.916 15.231C126.958 15.2261 126.999 15.2212 127.042 15.2162C127.778 15.1249 128.474 14.8116 129.07 14.3946C129.093 14.3793 129.116 14.364 129.14 14.3482C129.511 14.0938 129.893 13.7654 130.165 13.4128C130.165 13.3888 130.165 13.3648 130.165 13.3401C130.203 13.3281 130.24 13.3161 130.279 13.3037C130.319 13.2446 130.357 13.1837 130.392 13.1219C130.436 13.0601 130.48 12.9988 130.524 12.9378C130.547 12.9074 130.569 12.877 130.592 12.8456C130.632 12.7913 130.674 12.7378 130.717 12.6857C130.777 12.6036 130.808 12.5245 130.846 12.431C130.879 12.3677 130.912 12.3044 130.946 12.2414C131.214 11.7433 131.421 11.2346 131.546 10.6865C131.564 10.6112 131.584 10.5365 131.604 10.4617C132.024 8.84697 131.879 6.90726 131.186 5.37646C131.174 5.34959 131.161 5.32272 131.149 5.29504C130.994 4.95748 130.82 4.63646 130.619 4.32192C130.6 4.29144 130.582 4.26097 130.563 4.22955C130.459 4.06741 130.328 3.92421 130.203 3.77646C130.173 3.73933 130.142 3.70221 130.111 3.66395C130.08 3.62755 130.05 3.59119 130.019 3.55373C129.977 3.50293 129.977 3.50294 129.934 3.45115C129.899 3.41417 129.899 3.41417 129.863 3.37646C129.838 3.37646 129.813 3.37646 129.788 3.37646C129.779 3.35581 129.77 3.33519 129.761 3.31395C129.7 3.20974 129.624 3.14628 129.53 3.06737C129.498 3.03999 129.466 3.01261 129.433 2.98439C129.271 2.82755 129.271 2.82755 129.07 2.75828C129.07 2.73428 129.07 2.71028 129.07 2.68555C128.995 2.66155 128.92 2.63755 128.843 2.61283C128.843 2.58883 128.843 2.56483 128.843 2.5401C128.571 2.39573 128.299 2.25537 128.012 2.1401C127.986 2.12864 127.959 2.11719 127.932 2.10541C127.721 2.01723 127.504 1.95646 127.282 1.89919C127.239 1.88792 127.239 1.88792 127.195 1.87646C124.85 1.29006 122.35 1.7401 119.926 1.7401Z" fill="#EDE5D2"/>
<path d="M161.64 0.176468C163.074 0.176468 164.507 0.176468 165.985 0.176468C166.06 0.356468 166.134 0.536468 166.211 0.721922C166.269 0.84785 166.269 0.84785 166.328 0.973486C166.394 1.1181 166.453 1.2657 166.514 1.41283C166.672 1.79563 166.833 2.17672 167 2.55614C167.172 2.9464 167.34 3.33749 167.499 3.73269C167.561 3.88578 167.628 4.03261 167.706 4.17872C167.78 4.31618 167.834 4.45098 167.882 4.59803C167.968 4.84687 168.083 5.0864 168.197 5.32418C168.277 5.49112 168.343 5.66058 168.407 5.83385C168.448 5.94036 168.5 6.03894 168.554 6.1401C168.637 6.32705 168.71 6.51676 168.781 6.70829C168.825 6.82629 168.871 6.93807 168.932 7.0492C169.009 7.19094 169.063 7.33734 169.118 7.48796C169.208 7.72509 169.307 7.95927 169.428 8.18327C169.496 8.30956 169.541 8.43814 169.585 8.57349C169.622 8.67665 169.674 8.77029 169.725 8.86738C169.778 8.98774 169.827 9.10945 169.877 9.23101C169.914 9.32043 169.951 9.40981 169.988 9.4992C170.014 9.56261 170.014 9.56261 170.04 9.6273C170.206 10.0244 170.382 10.4177 170.556 10.8115C170.695 11.1264 170.829 11.4425 170.953 11.7628C171.007 11.8974 171.062 12.0279 171.131 12.156C171.192 12.272 171.232 12.3806 171.275 12.5037C171.302 12.5699 171.33 12.6358 171.36 12.7015C171.423 12.8475 171.486 12.9939 171.546 13.1414C171.644 13.3816 171.751 13.6161 171.865 13.8499C171.956 14.0405 172.034 14.2355 172.111 14.4316C172.207 14.6738 172.308 14.9127 172.415 15.1505C172.504 15.3493 172.591 15.5493 172.677 15.7492C172.701 15.804 172.701 15.804 172.725 15.86C172.823 16.086 172.918 16.3127 173.013 16.5401C173.032 16.5875 173.052 16.6348 173.072 16.6821C173.098 16.7468 173.098 16.7468 173.126 16.8128C173.136 16.8361 173.145 16.8594 173.155 16.8834C173.198 16.9849 173.24 17.0865 173.281 17.1885C173.342 17.3412 173.409 17.4876 173.487 17.6333C173.56 17.7707 173.614 17.9055 173.662 18.0526C173.749 18.3014 173.864 18.5409 173.978 18.7787C174.057 18.9424 174.123 19.108 174.184 19.2781C174.23 19.3979 174.282 19.5141 174.335 19.631C174.372 19.7136 174.409 19.7961 174.446 19.8787C174.464 19.9195 174.482 19.9602 174.501 20.0022C174.547 20.1058 174.591 20.2101 174.634 20.3148C174.712 20.5044 174.796 20.6916 174.881 20.8787C174.993 21.1289 175.1 21.3795 175.2 21.6345C175.258 21.7797 175.32 21.9225 175.384 22.0657C175.434 22.1836 175.481 22.3025 175.527 22.4219C175.589 22.5764 175.655 22.7232 175.735 22.8696C175.845 23.0838 175.925 23.3125 176.014 23.5356C176.132 23.8317 176.257 24.1244 176.394 24.4128C176.529 24.696 176.652 24.9832 176.768 25.2742C176.913 25.6419 177.072 26.0045 177.23 26.3674C177.295 26.5163 177.355 26.6662 177.414 26.8174C177.484 26.9931 177.563 27.1589 177.653 27.3259C177.728 27.4724 177.789 27.6236 177.849 27.7764C177.863 27.8124 177.877 27.8487 177.892 27.8858C178 28.1658 178 28.1658 178 28.2491C176.616 28.2491 175.232 28.2491 173.806 28.2491C173.667 27.9814 173.537 27.7269 173.428 27.4491C173.396 27.3673 173.364 27.2855 173.331 27.2037C173.309 27.1466 173.309 27.1466 173.287 27.0884C173.24 26.9749 173.24 26.9749 173.18 26.8631C173.134 26.7747 173.101 26.6934 173.072 26.5992C173.036 26.4904 172.994 26.3912 172.939 26.2901C172.863 26.1487 172.808 26.0036 172.753 25.8534C172.593 25.4286 172.407 25.0127 172.224 24.5968C172.067 24.24 171.914 23.8821 171.766 23.5219C171.605 23.1334 171.442 22.7465 171.271 22.362C171.257 22.3307 171.244 22.2993 171.229 22.267C171.202 22.2043 171.174 22.1417 171.146 22.0791C171.133 22.0504 171.12 22.0216 171.107 21.9921C171.096 21.9663 171.084 21.9405 171.073 21.9139C171.048 21.8492 171.048 21.8492 171.048 21.7765C165.936 21.7765 160.823 21.7765 155.556 21.7765C155.544 21.8365 155.531 21.8965 155.519 21.9583C155.491 22.0234 155.46 22.0878 155.429 22.1515C155.371 22.2715 155.315 22.3905 155.268 22.5151C155.216 22.6492 155.216 22.6492 155.16 22.756C155.114 22.8465 155.08 22.9288 155.049 23.0242C155.001 23.1672 154.942 23.3017 154.877 23.4382C154.774 23.6608 154.685 23.8896 154.595 24.1174C154.477 24.4129 154.353 24.7051 154.215 24.9924C154.128 25.1752 154.053 25.3612 153.979 25.5493C153.92 25.6971 153.856 25.8428 153.793 25.9886C153.737 26.1175 153.683 26.2469 153.629 26.3765C153.561 26.5407 153.493 26.7044 153.422 26.8674C153.352 27.0266 153.285 27.1865 153.218 27.3469C153.093 27.6484 152.964 27.9487 152.836 28.2491C151.751 28.2491 150.666 28.2491 149.549 28.2491C149.579 28.0724 149.61 27.9789 149.693 27.8269C149.766 27.6851 149.82 27.5371 149.878 27.3895C149.938 27.2388 150.003 27.0905 150.068 26.9419C150.119 26.8232 150.166 26.7035 150.212 26.5833C150.262 26.4567 150.312 26.3376 150.385 26.2219C150.455 26.1043 150.495 25.9965 150.537 25.8679C150.623 25.6209 150.733 25.3827 150.857 25.1515C150.929 25.0152 150.983 24.8813 151.03 24.7356C151.092 24.5572 151.173 24.3857 151.249 24.2128C151.274 24.1549 151.299 24.0969 151.325 24.0389C151.351 23.9772 151.378 23.9155 151.405 23.8537C151.418 23.8243 151.43 23.7949 151.444 23.7646C151.512 23.6078 151.586 23.4559 151.665 23.3037C151.683 23.2542 151.701 23.2042 151.717 23.1537C151.787 22.9438 151.877 22.7429 151.967 22.5401C151.998 22.4681 152.029 22.3961 152.059 22.3242C152.126 22.1686 152.197 22.0155 152.271 21.8628C152.385 21.6286 152.485 21.3917 152.579 21.15C152.657 20.9532 152.736 20.7631 152.837 20.5767C152.896 20.458 152.939 20.3338 152.985 20.2097C153.04 20.0644 153.103 19.9228 153.165 19.7804C153.216 19.6633 153.262 19.5452 153.308 19.4265C153.378 19.2507 153.457 19.0849 153.547 18.9179C153.656 18.7069 153.737 18.4847 153.818 18.2628C153.872 18.1196 153.934 17.9873 154.007 17.8529C154.069 17.7285 154.113 17.5983 154.161 17.4684C154.202 17.3604 154.255 17.2607 154.31 17.1583C154.362 17.0379 154.411 16.9162 154.461 16.7947C154.499 16.7007 154.538 16.6067 154.576 16.5128C154.586 16.4901 154.595 16.4673 154.605 16.4439C154.663 16.3022 154.729 16.1669 154.801 16.031C154.825 15.9776 154.847 15.9237 154.869 15.8696C154.882 15.8389 154.894 15.8081 154.907 15.7765C154.931 15.7174 154.956 15.6584 154.979 15.5993C155.01 15.5257 155.04 15.4523 155.07 15.3787C155.08 15.3551 155.089 15.3314 155.099 15.307C155.143 15.1998 155.187 15.1092 155.254 15.0128C155.272 14.9656 155.289 14.9178 155.304 14.8696C155.398 14.5886 155.522 14.3192 155.651 14.0514C155.738 13.8689 155.813 13.6831 155.887 13.4952C155.947 13.3432 156.013 13.1933 156.079 13.0433C156.12 12.9473 156.159 12.8507 156.199 12.7537C156.25 12.6294 156.308 12.5111 156.371 12.3924C156.444 12.2549 156.498 12.1201 156.546 11.9731C156.633 11.7236 156.748 11.4834 156.862 11.2447C156.95 11.0605 157.029 10.8741 157.106 10.6856C157.484 9.76872 157.484 9.76872 157.597 9.56054C157.683 9.40003 157.746 9.23203 157.812 9.06323C157.903 8.83458 157.996 8.606 158.111 8.38781C158.155 8.30287 158.186 8.22509 158.216 8.13556C158.286 7.9256 158.376 7.72476 158.466 7.52192C158.496 7.44996 158.527 7.37796 158.558 7.306C158.625 7.15098 158.696 6.99876 158.77 6.84691C158.855 6.67152 158.928 6.49559 158.995 6.31309C159.083 6.078 159.182 5.84607 159.302 5.62418C159.37 5.49789 159.415 5.3693 159.459 5.234C159.496 5.1308 159.548 5.03716 159.599 4.9401C159.652 4.8197 159.701 4.698 159.75 4.57647C159.877 4.26901 160.006 3.96338 160.142 3.65985C160.328 3.24567 160.508 2.82952 160.681 2.41025C160.745 2.25596 160.812 2.10269 160.879 1.94945C160.919 1.85661 160.957 1.76327 160.995 1.66963C161.054 1.52705 161.119 1.38818 161.186 1.2492C161.356 0.898068 161.495 0.538395 161.64 0.176468ZM163.302 3.63101C163.287 3.66476 163.273 3.6985 163.257 3.73327C163.206 3.84876 163.152 3.96258 163.097 4.07647C163.019 4.24058 162.953 4.40603 162.89 4.57603C162.807 4.79661 162.714 5.01363 162.622 5.23101C162.605 5.27112 162.588 5.31123 162.571 5.35258C162.503 5.51116 162.435 5.66749 162.353 5.81963C162.287 5.94171 162.243 6.0648 162.2 6.19549C162.113 6.44331 161.999 6.68236 161.885 6.91963C161.798 7.10243 161.723 7.28847 161.649 7.47658C161.59 7.62429 161.527 7.76985 161.463 7.91567C161.406 8.04607 161.352 8.17705 161.297 8.30829C161.287 8.33156 161.278 8.35483 161.268 8.3788C161.227 8.4784 161.185 8.57807 161.145 8.67789C161.08 8.83509 161.012 8.98912 160.938 9.14236C160.868 9.28971 160.811 9.43621 160.761 9.5908C160.733 9.66745 160.699 9.73632 160.66 9.80829C160.582 9.95214 160.526 10.1003 160.47 10.2532C160.391 10.4633 160.298 10.668 160.207 10.8737C160.048 11.2332 159.894 11.593 159.75 11.9583C159.677 12.1437 159.6 12.3231 159.505 12.4992C159.415 12.667 159.354 12.8377 159.297 13.0179C159.256 13.1312 159.202 13.2332 159.146 13.3401C159.115 13.414 159.085 13.4882 159.056 13.5628C158.979 13.7589 158.897 13.9528 158.813 14.1461C158.771 14.2414 158.732 14.3371 158.692 14.4333C158.64 14.5611 158.583 14.6859 158.522 14.8105C158.444 14.9744 158.378 15.14 158.316 15.31C158.227 15.5458 158.128 15.7787 158.008 16.0015C157.943 16.1223 157.899 16.244 157.857 16.3735C157.821 16.4733 157.781 16.5695 157.738 16.6667C157.722 16.705 157.705 16.7434 157.688 16.7829C157.582 17.0219 157.477 17.2607 157.371 17.4992C157.274 17.7184 157.183 17.9382 157.1 18.1625C157.014 18.3932 156.916 18.6203 156.799 18.8378C156.733 18.9608 156.687 19.0852 156.645 19.2175C156.604 19.3336 156.551 19.4456 156.501 19.5583C160.977 19.5583 165.454 19.5583 170.065 19.5583C170.008 19.2854 170.008 19.2854 169.9 19.0537C169.815 18.8986 169.751 18.7435 169.691 18.5781C169.553 18.2088 169.392 17.8472 169.234 17.4856C169.119 17.2197 169.005 16.9534 168.894 16.6856C168.736 16.3028 168.574 15.9216 168.407 15.5422C168.015 14.6476 168.015 14.6476 167.872 14.256C167.812 14.0934 167.735 13.944 167.653 13.7909C167.599 13.6828 167.561 13.5732 167.524 13.4588C167.445 13.2263 167.342 13.0043 167.234 12.7833C167.139 12.5884 167.056 12.3917 166.978 12.1905C166.925 12.0572 166.871 11.9247 166.816 11.7924C166.807 11.7693 166.797 11.7463 166.787 11.7225C166.714 11.5473 166.638 11.373 166.562 11.1989C166.526 11.1144 166.491 11.0299 166.456 10.9449C166.446 10.9207 166.436 10.8965 166.425 10.8716C166.397 10.8029 166.369 10.7341 166.341 10.6654C166.306 10.5838 166.268 10.5032 166.227 10.4242C166.183 10.3395 166.15 10.2621 166.122 10.1719C166.028 9.89156 165.903 9.62298 165.775 9.356C165.697 9.19316 165.632 9.0284 165.57 8.85956C165.501 8.67763 165.421 8.5001 165.342 8.32192C165.162 7.91134 164.984 7.50007 164.813 7.08556C164.776 6.99461 164.738 6.9037 164.7 6.81283C164.643 6.67523 164.586 6.5376 164.529 6.39989C164.43 6.16029 164.329 5.92149 164.225 5.6837C164.181 5.58178 164.138 5.47963 164.096 5.37716C164.076 5.32872 164.076 5.32872 164.056 5.2793C164.029 5.21512 164.003 5.15087 163.977 5.08658C163.91 4.92436 163.838 4.76865 163.756 4.61283C163.725 4.53894 163.695 4.46469 163.666 4.3901C163.601 4.22498 163.534 4.06047 163.465 3.8969C163.45 3.86152 163.435 3.82614 163.42 3.78967C163.382 3.69941 163.382 3.69941 163.302 3.63101Z" fill="#EDE5D2"/>
<path d="M66.9532 0.176468C72.9133 0.176468 78.8733 0.176468 85.014 0.176468C85.014 0.980468 85.014 1.78447 85.014 2.61283C80.3756 2.61283 75.7372 2.61283 70.9583 2.61283C70.9583 6.44083 70.9583 10.2688 70.9583 14.2128C75.3224 14.2128 79.6864 14.2128 84.1827 14.2128C84.1827 14.9808 84.1827 15.7488 84.1827 16.5401C79.8187 16.5401 75.4546 16.5401 70.9583 16.5401C70.9583 19.6001 70.9583 22.6601 70.9583 25.8128C75.8211 25.8128 80.6839 25.8128 85.6941 25.8128C85.6941 26.6168 85.6941 27.4207 85.6941 28.2491C79.5096 28.2491 73.3251 28.2491 66.9532 28.2491C66.9532 18.9852 66.9532 9.7212 66.9532 0.176468Z" fill="#EDE5D2"/>
<path d="M39.9755 0.176468C41.3845 0.176468 42.7934 0.176468 44.2451 0.176468C44.3127 0.349704 44.3766 0.516069 44.4314 0.692069C44.4442 0.732723 44.457 0.773341 44.4703 0.815195C44.4831 0.856395 44.4963 0.897632 44.5096 0.940104C44.5353 1.01974 44.561 1.09938 44.5866 1.17901C44.612 1.25847 44.6377 1.33792 44.663 1.41738C44.6822 1.47676 44.6822 1.47676 44.7019 1.53738C44.7722 1.75691 44.8383 1.97694 44.9002 2.19883C44.9305 2.30418 44.9656 2.40734 45.003 2.51054C45.0525 2.64738 45.0922 2.7837 45.1277 2.92443C45.1821 3.12258 45.2486 3.31738 45.3125 3.51283C45.3435 3.60763 45.3741 3.70247 45.4047 3.79734C45.416 3.83236 45.416 3.83236 45.4277 3.8681C45.518 4.14756 45.6053 4.42796 45.6918 4.70851C45.7198 4.79872 45.7481 4.88887 45.7761 4.97901C45.8585 5.24258 45.9408 5.50618 46.0205 5.77043C46.092 6.00589 46.1671 6.23945 46.2491 6.47178C46.3474 6.75403 46.4343 7.03832 46.5121 7.32647C46.5661 7.52516 46.6308 7.71563 46.7063 7.90756C46.7422 8.00389 46.7672 8.10134 46.791 8.20101C46.8291 8.33909 46.879 8.47334 46.9266 8.60854C47.015 8.86069 47.0921 9.11567 47.1688 9.3712C47.207 9.49807 47.2455 9.62476 47.2844 9.75145C47.292 9.77676 47.2999 9.80203 47.3078 9.8281C47.3872 10.0881 47.468 10.3477 47.5493 10.6073C47.5893 10.7355 47.629 10.8638 47.6687 10.9922C47.6785 11.0246 47.6887 11.057 47.6989 11.0903C47.7178 11.1518 47.7367 11.2132 47.7556 11.2747C47.7979 11.4115 47.8429 11.5459 47.8958 11.6792C47.9339 11.7768 47.9604 11.8597 47.9811 11.9605C48.0136 12.1122 48.0616 12.2573 48.1134 12.4037C48.1217 12.4273 48.13 12.4509 48.1383 12.4752C48.1466 12.4988 48.155 12.5224 48.1636 12.5468C48.2838 12.8869 48.3866 13.2316 48.4829 13.5785C48.5271 13.7352 48.5796 13.8855 48.6405 14.0369C48.6749 14.1281 48.6979 14.2204 48.7202 14.3151C48.7557 14.457 48.7961 14.5922 48.8502 14.7287C48.9454 14.9722 49.0179 15.2216 49.0928 15.4713C49.14 15.6264 49.1887 15.7809 49.2371 15.9356C49.2957 16.1221 49.3535 16.3085 49.4049 16.4969C49.454 16.6742 49.5144 16.8473 49.576 17.0209C49.6467 17.2221 49.7071 17.4252 49.7657 17.6301C49.7967 17.7382 49.7967 17.7383 49.8379 17.8323C49.8787 17.9315 49.904 18.0293 49.9293 18.1333C49.961 18.2603 49.9943 18.3824 50.0449 18.5037C50.0936 18.6209 50.1258 18.7378 50.156 18.8605C50.2013 19.042 50.261 19.2128 50.3294 19.3872C50.3903 19.5505 50.4337 19.718 50.4794 19.8856C50.5682 20.1998 50.6676 20.5088 50.7775 20.8167C50.8293 20.9619 50.8728 21.106 50.9098 21.2553C50.9631 21.4523 51.0299 21.6459 51.0934 21.8401C51.124 21.9348 51.155 22.0295 51.1856 22.1242C51.1932 22.1475 51.2007 22.1708 51.2083 22.1949C51.3352 22.5871 51.4569 22.9809 51.5767 23.3752C51.5846 23.4019 51.5929 23.4285 51.6012 23.456C51.6092 23.4819 51.6167 23.5077 51.625 23.5344C51.6704 23.6829 51.7187 23.8298 51.7709 23.9763C51.8162 24.1097 51.8574 24.2442 51.8986 24.3787C51.9065 24.4045 51.9145 24.4303 51.9228 24.4568C51.9753 24.6291 52.0221 24.8021 52.0663 24.9765C52.1374 24.8741 52.1631 24.8098 52.1948 24.6932C52.2043 24.6589 52.2137 24.6247 52.2235 24.5894C52.2334 24.5536 52.2428 24.5179 52.253 24.481C52.3138 24.2569 52.3781 24.0359 52.4559 23.8166C52.4971 23.6957 52.5273 23.5728 52.5575 23.4492C52.604 23.2646 52.6565 23.0848 52.7223 22.9057C52.7487 22.8237 52.7657 22.7428 52.782 22.6583C52.8179 22.472 52.8757 22.2952 52.935 22.1148C52.9716 21.9996 53.0026 21.8844 53.0321 21.7674C53.0631 21.6443 53.0967 21.5252 53.1409 21.406C53.1984 21.2472 53.2365 21.0856 53.2754 20.9219C53.3196 20.7349 53.368 20.554 53.4349 20.3732C53.4919 20.2033 53.5324 20.0287 53.5766 19.8554C53.7186 19.2989 53.88 18.746 54.05 18.1969C54.1252 17.9541 54.1936 17.71 54.2601 17.4649C54.3198 17.2433 54.3817 17.0223 54.4445 16.8015C54.4584 16.7513 54.4584 16.7513 54.4732 16.7002C54.4924 16.6323 54.5117 16.5643 54.531 16.4964C54.5786 16.3292 54.6262 16.1619 54.6734 15.9947C54.7297 15.7963 54.7857 15.598 54.842 15.3997C54.8608 15.3344 54.8794 15.2691 54.8979 15.2037C54.9115 15.1553 54.9115 15.1553 54.9255 15.1059C54.9784 14.9193 55.0309 14.7325 55.0826 14.5456C55.0943 14.5035 55.1061 14.4614 55.1182 14.418C55.1404 14.3365 55.1631 14.255 55.1854 14.1735C55.2398 13.9781 55.2984 13.7861 55.3664 13.5948C55.403 13.487 55.4302 13.3777 55.4575 13.2674C55.533 12.9677 55.6199 12.6713 55.7068 12.3746C55.7854 12.1067 55.861 11.8382 55.932 11.5683C55.9755 11.4067 56.0269 11.2494 56.0824 11.0914C56.1213 10.9772 56.1508 10.8614 56.1803 10.7447C56.1931 10.6941 56.206 10.6436 56.2188 10.5931C56.2256 10.5668 56.232 10.5405 56.2392 10.5135C56.3378 10.1312 56.4429 9.7516 56.5664 9.37603C56.6125 9.22927 56.6492 9.08083 56.6866 8.93185C56.7111 8.84018 56.7402 8.7521 56.7727 8.66283C56.8128 8.55265 56.8407 8.4457 56.8626 8.33101C56.8985 8.14454 56.9563 7.96756 57.016 7.78698C57.0516 7.67494 57.0818 7.56301 57.1105 7.4492C57.149 7.29629 57.1932 7.14683 57.2427 6.99691C57.3081 6.7976 57.358 6.59752 57.4048 6.39363C57.4275 6.30265 57.4536 6.2168 57.4861 6.12872C57.5454 5.96549 57.587 5.79938 57.6293 5.63141C57.6924 5.38596 57.7623 5.14258 57.8329 4.8992C57.8446 4.85996 57.856 4.82072 57.8677 4.78029C57.9108 4.63305 57.9538 4.48672 58.0045 4.34167C58.0343 4.25512 58.0532 4.17301 58.0695 4.08327C58.1057 3.90025 58.1616 3.7265 58.2198 3.54905C58.2697 3.3909 58.3139 3.23181 58.3574 3.07192C58.3653 3.0424 58.3732 3.01291 58.3815 2.98251C58.4122 2.86996 58.4424 2.75738 58.4726 2.64476C58.5357 2.40945 58.6011 2.17676 58.6831 1.9469C58.7397 1.78909 58.7779 1.6356 58.8085 1.47163C58.8421 1.32003 58.8939 1.17418 58.9426 1.02658C58.9921 0.866977 59.0288 0.705741 59.0635 0.54265C59.0942 0.431014 59.0942 0.431013 59.2075 0.176468C60.2923 0.176468 61.3771 0.176468 62.4947 0.176468C62.4063 0.686941 62.2276 1.2052 62.039 1.6901C61.9861 1.82669 61.9419 1.96316 61.9019 2.10374C61.8135 2.4101 61.7069 2.71043 61.6011 3.0116C61.5172 3.2504 61.4379 3.48996 61.3616 3.73105C61.2966 3.93221 61.2259 4.13145 61.1556 4.33101C61.0529 4.62509 60.9539 4.91916 60.8658 5.21756C60.7861 5.48414 60.6928 5.74636 60.601 6.00923C60.5099 6.26992 60.4238 6.53138 60.341 6.79465C60.2783 6.98869 60.2152 7.18258 60.1521 7.37647C60.1427 7.4049 60.1336 7.43338 60.1241 7.46272C60.0214 7.77698 59.9182 8.09072 59.8086 8.40287C59.7735 8.50574 59.7406 8.60912 59.7081 8.71283C59.622 8.98571 59.5264 9.25541 59.4316 9.52571C59.3469 9.76912 59.2702 10.0129 59.2 10.2604C59.1697 10.3583 59.1697 10.3583 59.1108 10.4901C59.0447 10.6389 59.0103 10.7887 58.9714 10.9458C58.937 11.0713 58.8826 11.1845 58.8297 11.3037C58.8108 11.374 58.7926 11.4444 58.7753 11.5151C58.7318 11.6913 58.6725 11.8513 58.5992 12.0178C58.5663 12.1012 58.5455 12.18 58.5274 12.2674C58.5025 12.388 58.4658 12.4948 58.4163 12.6083C58.3491 12.7639 58.3011 12.9187 58.2569 13.0817C58.1537 13.4483 58.0264 13.8068 57.8919 14.1637C57.8046 14.4023 57.7294 14.6447 57.658 14.8883C57.5503 15.2549 57.4233 15.6141 57.293 15.9738C57.191 16.2546 57.0935 16.5351 57.0096 16.8214C56.9431 17.0475 56.8653 17.2697 56.7871 17.4924C56.7073 17.7193 56.6288 17.9454 56.5626 18.1765C56.4844 18.4497 56.3892 18.7172 56.2955 18.9857C56.2177 19.2087 56.1421 19.432 56.0714 19.6573C56.0212 19.8155 55.9698 19.9733 55.918 20.131C55.9041 20.1736 55.9041 20.1736 55.8897 20.2171C55.8455 20.3526 55.8002 20.4878 55.7529 20.6225C55.7068 20.7546 55.6638 20.8875 55.6214 21.0208C55.5296 21.3096 55.4295 21.5955 55.3294 21.8817C55.244 22.1261 55.1627 22.3711 55.0857 22.618C55.0535 22.7155 55.0154 22.8089 54.9757 22.9037C54.9572 22.9716 54.9402 23.0399 54.9236 23.1083C54.8778 23.2897 54.8193 23.4612 54.7505 23.6357C54.6923 23.7904 54.644 23.9479 54.5952 24.1057C54.5601 24.2128 54.5601 24.2128 54.52 24.3081C54.4868 24.3888 54.4675 24.4619 54.4513 24.5469C54.4248 24.6687 54.3882 24.7777 54.3379 24.8924C54.2582 25.0768 54.2026 25.2645 54.1471 25.457C54.0458 25.8021 53.9325 26.1428 53.8029 26.4789C53.7141 26.7171 53.6416 26.9607 53.5694 27.2039C53.4934 27.4582 53.4179 27.7084 53.3091 27.952C53.2679 28.0491 53.2342 28.1495 53.1999 28.2491C51.9405 28.2491 50.6812 28.2491 49.3837 28.2491C49.2269 27.8465 49.0826 27.452 48.9601 27.0407C48.8846 26.7888 48.8079 26.5431 48.7021 26.3012C48.6269 26.1183 48.5732 25.9283 48.5147 25.7401C48.4841 25.6453 48.4535 25.5507 48.4225 25.456C48.3741 25.3074 48.3257 25.1588 48.2785 25.0098C48.1901 24.7341 48.0956 24.4621 47.9932 24.1909C47.9335 24.0281 47.8814 23.8634 47.8304 23.6979C47.7983 23.5948 47.7983 23.5948 47.7567 23.498C47.7212 23.4128 47.7212 23.4128 47.6906 23.2878C47.6445 23.1017 47.5731 22.9247 47.5055 22.7451C47.4318 22.5454 47.3691 22.3429 47.3056 22.1401C47.2735 22.0393 47.2413 21.9385 47.2088 21.8378C47.1968 21.8004 47.1968 21.8004 47.1843 21.7622C47.1439 21.6383 47.1019 21.5157 47.0528 21.3947C47.009 21.2815 46.9784 21.1703 46.9485 21.0532C46.9168 20.9367 46.876 20.8238 46.8348 20.7101C46.8261 20.6858 46.8174 20.6615 46.8083 20.6365C46.7804 20.5596 46.7524 20.4828 46.7245 20.406C46.6882 20.3051 46.6515 20.2043 46.6153 20.1033C46.6062 20.0788 46.5975 20.0542 46.5884 20.0289C46.5185 19.8341 46.4551 19.6379 46.3938 19.4404C46.3621 19.3441 46.3247 19.2519 46.2854 19.1583C46.2669 19.0896 46.2499 19.0206 46.2333 18.9515C46.1894 18.7773 46.1316 18.6179 46.0598 18.453C45.9839 18.268 45.9291 18.076 45.8698 17.8856C45.8392 17.7908 45.8086 17.6961 45.7776 17.6014C45.7292 17.4528 45.6809 17.3042 45.6336 17.1553C45.5452 16.8796 45.4508 16.6076 45.3484 16.3364C45.2887 16.1735 45.2365 16.0089 45.1855 15.8433C45.1534 15.7405 45.1534 15.7405 45.1118 15.6448C45.0793 15.5659 45.0608 15.4959 45.0457 15.4128C45.0049 15.2271 44.9331 15.0572 44.8606 14.8811C44.7831 14.6857 44.723 14.4859 44.6607 14.2856C44.6301 14.1908 44.5995 14.0961 44.5685 14.0014C44.5201 13.8528 44.4718 13.7042 44.4246 13.5553C44.3354 13.277 44.2398 13.0024 44.1363 12.7287C44.0883 12.5971 44.0467 12.4644 44.0063 12.3304C43.9813 12.2517 43.9526 12.1758 43.9216 12.0992C43.8752 11.9835 43.8434 11.8675 43.814 11.7466C43.7788 11.6216 43.7297 11.5018 43.6829 11.3806C43.6417 11.2706 43.6054 11.1603 43.5706 11.0485C43.4913 10.7987 43.4059 10.5512 43.3194 10.3037C43.2211 10.0231 43.1263 9.74203 43.0364 9.45876C42.9706 9.25447 42.8992 9.05189 42.8282 8.8492C42.7281 8.56378 42.6313 8.278 42.5414 7.98945C42.5093 7.892 42.4715 7.79847 42.4314 7.70374C42.4201 7.65549 42.4099 7.60698 42.4008 7.55829C42.36 7.37258 42.2882 7.20261 42.2157 7.02658C42.1382 6.83116 42.0782 6.6313 42.0158 6.43101C41.9852 6.33625 41.9546 6.24156 41.9236 6.1469C41.8753 5.99829 41.8269 5.84967 41.7797 5.70076C41.6905 5.42247 41.5949 5.14789 41.4914 4.87418C41.4434 4.74258 41.4018 4.60989 41.3614 4.47589C41.3297 4.37607 41.2915 4.2796 41.2507 4.18298C41.2167 4.08745 41.1933 3.99014 41.1683 3.89214C41.1321 3.75905 41.0863 3.62938 41.0406 3.4992C41.0304 3.47072 41.0206 3.44225 41.0104 3.41294C40.9492 3.23865 40.8861 3.06534 40.8211 2.89236C40.7134 2.60556 40.6212 2.31519 40.5339 2.02218C40.4591 1.77119 40.3824 1.52712 40.2766 1.28625C40.2143 1.13072 40.1708 0.970213 40.1247 0.809704C40.0847 0.671304 40.0405 0.534504 39.9951 0.39774C39.9755 0.321922 39.9755 0.321922 39.9755 0.176468Z" fill="#EDE5D2"/>
<path d="M88.1499 0.176468C95.8555 0.176468 103.561 0.176468 111.5 0.176468C111.5 0.716468 111.5 1.25647 111.5 1.81283C108.321 1.81283 105.141 1.81283 101.865 1.81283C101.865 10.5368 101.865 19.2608 101.865 28.2491C100.531 28.2491 99.1971 28.2491 97.8226 28.2491C97.8226 19.5252 97.8226 10.8012 97.8226 1.81283C94.6306 1.81283 91.4386 1.81283 88.1499 1.81283C88.1499 1.27283 88.1499 0.732832 88.1499 0.176468Z" fill="#EDE5D2"/>
<path d="M140.934 0.176468C142.256 0.176468 143.577 0.176468 144.939 0.176468C144.939 9.44047 144.939 18.7045 144.939 28.2491C143.617 28.2491 142.296 28.2491 140.934 28.2491C140.934 18.9852 140.934 9.7212 140.934 0.176468Z" fill="#EDE5D2"/>
<path d="M0 4.59292C4.50569 2.75626 9.70533 4.78266 11.6137 9.11899L19.7724 27.6575C15.2667 29.4942 10.067 27.4676 8.15864 23.1315L0 4.59292Z" fill="#EDE5D2"/>
<path d="M21.1916 27.9267C21.0298 26.129 20.8914 20.0336 25.1944 12.4015C27.7683 7.83633 30.3642 4.72796 32.3168 2.76069C33.2931 1.77705 34.1086 1.07873 34.6802 0.626181C34.966 0.399927 35.1909 0.235091 35.3443 0.1268C35.421 0.0726909 35.4798 0.0326908 35.5195 0.00618175C35.5228 0.00399993 35.5289 0 35.5289 0L29.218 3.60662e-05C19.9327 3.60662e-05 13.547 8.97894 16.9079 17.3093L21.1916 27.9267ZM21.2644 28.2183L21.2667 28.2132L21.2561 28.187C21.2572 28.1968 21.2583 28.2063 21.2594 28.2154L21.2609 28.2201L21.2644 28.2183Z" fill="#EDE5D2"/>
</svg>
